<svg xmlns="http://www.w3.org/2000/svg" xmlns:xlink="http://www.w3.org/1999/xlink" width="1080" zoomAndPan="magnify" viewBox="0 0 810 809.999993" height="1080" preserveAspectRatio="xMidYMid meet" version="1.0"><defs><clipPath id="d37234f7d9"><path d="M 135.167969 270 L 675.167969 270 L 675.167969 540 L 135.167969 540 Z M 135.167969 270 " clip-rule="nonzero"/></clipPath><clipPath id="a7c43f70cc"><path d="M 135.167969 0 L 675.167969 0 L 675.167969 271 L 135.167969 271 Z M 135.167969 0 " clip-rule="nonzero"/></clipPath><clipPath id="a93884cf8b"><path d="M 135.167969 539 L 406 539 L 406 810 L 135.167969 810 Z M 135.167969 539 " clip-rule="nonzero"/></clipPath></defs><g clip-path="url(#d37234f7d9)"><path fill="#24a8ff" d="M 675.167969 539.914062 L 135.167969 539.914062 L 135.167969 270.085938 L 405.167969 270.085938 Z M 675.167969 539.914062 " fill-opacity="1" fill-rule="nonzero"/></g><g clip-path="url(#a7c43f70cc)"><path fill="#8ddcff" d="M 675.167969 0.253906 L 135.167969 0.253906 L 405.167969 270.085938 L 675.167969 270.085938 Z M 675.167969 0.253906 " fill-opacity="1" fill-rule="nonzero"/></g><g clip-path="url(#a93884cf8b)"><path fill="#054eff" d="M 405.167969 539.914062 L 405.167969 809.746094 L 135.167969 539.914062 Z M 405.167969 539.914062 " fill-opacity="1" fill-rule="nonzero"/></g></svg>