<svg xmlns="http://www.w3.org/2000/svg" xmlns:xlink="http://www.w3.org/1999/xlink" width="1080" zoomAndPan="magnify" viewBox="0 0 810 809.999993" height="1080" preserveAspectRatio="xMidYMid meet" version="1.0"><defs><clipPath id="942cecef4b"><path d="M 419 111 L 769.5 111 L 769.5 462 L 419 462 Z M 419 111 " clip-rule="nonzero"/></clipPath></defs><path fill="#60ae44" d="M 223.210938 197.359375 C 274.4375 197.621094 316.796875 155.441406 316.796875 104.167969 C 316.796875 53.878906 275.09375 11.695312 224.65625 10.941406 C 173.984375 10.21875 130.605469 52.5625 129.785156 103.507812 C 128.964844 153.734375 172.179688 197.128906 223.210938 197.359375 Z M 223.210938 197.359375 " fill-opacity="1" fill-rule="nonzero"/><path fill="#1c88bc" d="M 123.90625 175.660156 C 41.289062 296.230469 46.082031 460.554688 136.15625 575.640625 C 152.34375 596.355469 169.980469 615.65625 191.847656 631.773438 C 216.542969 526.46875 303.664062 492.230469 373.640625 504.148438 C 459.050781 518.65625 505.449219 589.558594 497.4375 694.109375 C 613.257812 679.996094 758.53125 508.644531 744.214844 403.144531 C 655.386719 480.480469 579.53125 494.367188 499.804688 447.785156 C 429.300781 406.621094 394.523438 325.640625 412.386719 244.363281 C 431.730469 156.390625 494.941406 110.273438 616.507812 97.730469 C 524.234375 32.015625 426.671875 11.761719 319.554688 37.890625 C 305.699219 41.238281 311.640625 46.457031 315.417969 53.417969 C 341.292969 100.917969 328.027344 158.691406 284.386719 189.675781 C 240.746094 220.664062 181.441406 214.460938 145.484375 173.59375 C 134.84375 161.546875 131.394531 164.761719 123.90625 175.660156 Z M 589.21875 493.542969 C 605.210938 493.183594 617.691406 505.230469 617.65625 521.152344 C 617.691406 536.085938 605.738281 548.101562 590.566406 548.460938 C 574.707031 548.824219 561.832031 536.414062 562.03125 520.890625 C 562.195312 505.722656 574.015625 493.90625 589.21875 493.542969 Z M 540.585938 551.875 C 556.347656 552.007812 568.597656 564.777344 568.039062 580.597656 C 567.546875 595.765625 555.855469 606.597656 540.0625 606.5625 C 523.773438 606.433594 511.855469 594.253906 512.445312 578.398438 C 513.035156 563.757812 525.679688 551.808594 540.585938 551.875 Z M 444.863281 79.710938 C 460.070312 78.957031 473.53125 91.691406 473.894531 107.121094 C 474.1875 122.089844 462.464844 134.265625 447.328125 134.792969 C 430.644531 135.351562 418.921875 124.289062 418.792969 107.941406 C 418.628906 92.316406 429.59375 80.464844 444.863281 79.710938 Z M 375.414062 55.191406 C 390.617188 55.617188 402.207031 67.53125 402.175781 82.664062 C 402.144531 97.402344 389.925781 109.8125 375.050781 110.171875 C 359.617188 110.566406 346.449219 97.699219 346.515625 82.304688 C 346.613281 66.515625 359.222656 54.730469 375.414062 55.191406 Z M 276.441406 480.742188 C 276.375 495.582031 264.222656 507.429688 248.890625 507.691406 C 232.40625 507.921875 220.648438 496.367188 220.84375 480.183594 C 221.042969 465.085938 233.0625 452.875 247.804688 452.742188 C 263.273438 452.609375 276.570312 465.578125 276.441406 480.742188 Z M 237.953125 411.183594 C 237.328125 426.546875 225.3125 437.871094 210.074219 437.347656 C 194.3125 436.886719 182.492188 423.921875 183.277344 408.097656 C 184.035156 393 196.316406 381.640625 211.550781 381.9375 C 227.316406 382.265625 238.609375 394.773438 237.953125 411.183594 Z M 194.640625 358.335938 C 179.074219 358.566406 166.203125 345.828125 166.300781 330.269531 C 166.398438 315.464844 178.617188 303.222656 193.621094 302.859375 C 208.792969 302.5 220.78125 313.855469 221.4375 329.21875 C 222.09375 345.269531 210.335938 358.039062 194.640625 358.335938 Z M 190.078125 228.542969 C 205.871094 228.839844 218.152344 241.707031 217.464844 257.296875 C 216.839844 272.136719 204.359375 283.691406 189.191406 283.492188 C 174.050781 283.296875 162.132812 271.480469 161.933594 256.347656 C 161.671875 240.492188 174.050781 228.28125 190.078125 228.542969 Z M 190.078125 228.542969 " fill-opacity="1" fill-rule="nonzero"/><g clip-path="url(#942cecef4b)"><path fill="#60ae44" d="M 419.285156 284.019531 C 418.792969 381.9375 496.519531 461.046875 593.554688 461.507812 C 691.675781 461.902344 770.683594 384.367188 771.109375 287.234375 C 771.535156 191.089844 693.21875 111.914062 596.839844 111.191406 C 500.261719 110.46875 419.746094 188.824219 419.285156 284.019531 Z M 419.285156 284.019531 " fill-opacity="1" fill-rule="nonzero"/></g><path fill="#60ae44" d="M 346.089844 798.757812 C 424.375 798.496094 488.769531 733.925781 488.671875 655.703125 C 488.671875 576.59375 424.210938 513.371094 343.890625 513.699219 C 266.820312 514.027344 201.636719 579.679688 202.421875 656.164062 C 203.246094 734.257812 268.460938 799.019531 346.089844 798.757812 Z M 346.089844 798.757812 " fill-opacity="1" fill-rule="nonzero"/></svg>